

<svg xmlns="http://www.w3.org/2000/svg" version="1.1" xmlns:xlink="http://www.w3.org/1999/xlink" xmlns:svgjs="http://svgjs.dev/svgjs" width="1000" height="171" viewBox="0 0 1000 171"><g transform="matrix(1,0,0,1,-0.6060582424722156,-0.33945599006342775)"><svg viewBox="0 0 396 68" data-background-color="#c8c8c8" preserveAspectRatio="xMidYMid meet" height="171" width="1000" xmlns="http://www.w3.org/2000/svg" xmlns:xlink="http://www.w3.org/1999/xlink"><g id="tight-bounds" transform="matrix(1,0,0,1,0.23999906401900262,0.13498834692580886)"><svg viewBox="0 0 395.52 67.73002330614841" height="67.73002330614841" width="395.52"><g><svg viewBox="0 0 527.95986328125 90.4094201171875" height="67.73002330614841" width="395.52"><g><svg viewBox="0 0 527.95986328125 90.4094201171875" height="90.4094201171875" width="527.95986328125"><g><svg viewBox="0 0 527.95986328125 90.4094201171875" height="90.4094201171875" width="527.95986328125"><g><svg viewBox="0 0 527.95986328125 59.17392578125" height="59.17392578125" width="527.95986328125"><g><svg><g></g><g></g></svg></g><g><svg><g></g><g><svg></svg></g></svg></g><g id="text-0"><svg viewBox="0 0 527.95986328125 59.17392578125" height="59.17392578125" width="527.95986328125"><g transform="matrix(1,0,0,1,0,11.300830078125)"><svg width="160.76660156250003" viewBox="2.559999942779541 -36.060001373291016 160.760009765625 36.56999969482422" height="36.572265625" data-palette-color="#6b7280"><path d="M15.41 0.51L15.41 0.51Q11.77 0.51 8.64-0.39 5.52-1.29 2.56-3.39L2.56-3.39 2.56-11.57 7.32-11.57 8.11-6.27Q9.4-5.35 11.29-4.79 13.18-4.22 15.41-4.22L15.41-4.22Q17.58-4.22 19.06-4.85 20.53-5.47 21.31-6.59 22.09-7.71 22.09-9.25L22.09-9.25Q22.09-10.67 21.41-11.77 20.73-12.87 19.14-13.73 17.55-14.6 14.84-15.33L14.84-15.33Q10.86-16.41 8.19-17.87 5.52-19.34 4.16-21.39 2.81-23.44 2.81-26.22L2.81-26.22Q2.81-29.08 4.36-31.27 5.91-33.47 8.67-34.74 11.43-36.01 15.04-36.04L15.04-36.04Q18.99-36.08 22.03-35.01 25.07-33.94 27.17-32.2L27.17-32.2 27.17-24.56 22.51-24.56 21.63-29.54Q20.63-30.25 19.03-30.75 17.43-31.25 15.26-31.25L15.26-31.25Q13.4-31.25 11.99-30.64 10.57-30.03 9.77-28.92 8.96-27.81 8.96-26.27L8.96-26.27Q8.96-24.93 9.67-23.93 10.38-22.92 12.04-22.11 13.7-21.29 16.53-20.46L16.53-20.46Q22.31-18.92 25.29-16.21 28.27-13.5 28.27-9.3L28.27-9.3Q28.27-6.35 26.67-4.14 25.07-1.93 22.18-0.71 19.29 0.51 15.41 0.51ZM47.19 0.51L47.19 0.51Q43.65 0.51 40.79-0.82 37.94-2.15 35.9-4.57 33.86-6.98 32.76-10.28 31.66-13.57 31.66-17.5L31.66-17.5 31.66-18.04Q31.66-21.95 32.76-25.24 33.86-28.54 35.9-30.97 37.94-33.4 40.79-34.73 43.65-36.06 47.17-36.06L47.17-36.06Q50.8-36.06 53.68-34.73 56.56-33.4 58.59-30.97 60.62-28.54 61.69-25.24 62.77-21.95 62.77-18.04L62.77-18.04 62.77-17.5Q62.77-13.57 61.69-10.28 60.62-6.98 58.59-4.57 56.56-2.15 53.68-0.82 50.8 0.51 47.19 0.51ZM47.19-4.37L47.19-4.37Q50.41-4.37 52.5-6.02 54.59-7.67 55.6-10.62 56.61-13.57 56.61-17.5L56.61-17.5 56.61-18.09Q56.61-21.97 55.59-24.9 54.56-27.83 52.48-29.49 50.39-31.15 47.17-31.15L47.17-31.15Q44.09-31.15 42.01-29.49 39.94-27.83 38.89-24.9 37.84-21.97 37.84-18.09L37.84-18.09 37.84-17.5Q37.84-13.6 38.89-10.63 39.94-7.67 42.03-6.02 44.11-4.37 47.19-4.37ZM92.23 0L65.96 0 65.96-3.76 69.84-4.49 69.84-31.03 65.96-31.76 65.96-35.55 69.84-35.55 76-35.55 80.17-35.55 80.17-31.76 76-31.03 76-4.71 87.1-4.71 87.52-10.08 92.23-10.08 92.23 0ZM106.54 0L95.23 0 95.23-3.76 97.82-4.13 109.59-35.55 115.57-35.55 127.19-4.13 129.78-3.76 129.78 0 118.47 0 118.47-3.76 121.01-4.22 119.13-9.81 105.9-9.81 103.97-4.22 106.54-3.76 106.54 0ZM112.13-27.64L107.51-14.53 117.55-14.53 112.93-27.69 112.61-28.64 112.47-28.64 112.13-27.64ZM146.6 0L132.68 0 132.68-3.76 136.56-4.49 136.56-31.03 132.68-31.76 132.68-35.55 149.11-35.55Q153.12-35.55 155.95-34.31 158.78-33.08 160.27-30.79 161.76-28.49 161.76-25.24L161.76-25.24Q161.76-22.12 160.28-19.8 158.8-17.48 156.15-16.2 153.51-14.92 149.94-14.87L149.94-14.87 142.71-14.79 142.71-4.49 146.6-3.76 146.6 0ZM163.32 0L155.8 0 149.01-16.36 154.78-17.31 160.54-4.39 163.32-3.81 163.32 0ZM142.71-30.79L142.71-19.58 148.84-19.58Q152.31-19.58 153.97-20.98 155.63-22.39 155.63-25.07L155.63-25.07Q155.63-27.69 154.02-29.24 152.41-30.79 149.11-30.79L149.11-30.79 142.71-30.79Z" opacity="1" transform="matrix(1,0,0,1,0,0)" fill="#6b7280" class="undefined-o-0"></path></svg></g><g><svg xmlns="http://www.w3.org/2000/svg" xmlns:xlink="http://www.w3.org/1999/xlink" version="1.1" x="174.73720703125002" y="0" viewBox="5 5 90 90" enable-background="new 0 0 100 100" xml:space="preserve" height="59.17392578125" width="59.17392578125" class="icon-c-0" data-fill-palette-color="accent" id="c-0"><path d="M92.5 90h-10v-7.6l6.6 2.5c0.3 0.1 0.6 0.2 0.9 0.2 0.5 0 1-0.2 1.4-0.4 0.7-0.5 1.1-1.2 1.1-2.1V70c0-1-0.6-2-1.6-2.3l-20-7.5c-0.8-0.3-1.6-0.2-2.3 0.3-0.7 0.5-1.1 1.2-1.1 2.1V75c0 1 0.6 2 1.6 2.3l8.4 3.1V90h-25v-7.6l6.6 2.5c0.3 0.1 0.6 0.2 0.9 0.2 0.5 0 1-0.2 1.4-0.4 0.7-0.5 1.1-1.2 1.1-2.1V70c0-1-0.6-2-1.6-2.3l-20-7.5c-0.8-0.3-1.6-0.2-2.3 0.3-0.7 0.5-1.1 1.2-1.1 2.1V75c0 1 0.6 2 1.6 2.3l8.4 3.1V90h-25v-7.6l6.6 2.5c0.3 0.1 0.6 0.2 0.9 0.2 0.5 0 1-0.2 1.4-0.4 0.7-0.5 1.1-1.2 1.1-2.1V70c0-1-0.6-2-1.6-2.3l-20-7.5c-0.8-0.3-1.6-0.2-2.3 0.3-0.7 0.5-1.1 1.2-1.1 2.1V75c0 1 0.6 2 1.6 2.3l8.4 3.1V90h-10C6.1 90 5 91.1 5 92.5S6.1 95 7.5 95h85c1.4 0 2.5-1.1 2.5-2.5S93.9 90 92.5 90zM72.5 66.1l15 5.6v7.2l-15-5.6V66.1zM42.5 66.1l15 5.6v7.2l-15-5.6V66.1zM12.5 66.1l15 5.6v7.2l-15-5.6V66.1z" fill="#97978d" data-fill-palette-color="accent"></path><path d="M80 30c0-5.5-4.5-10-10-10s-10 4.5-10 10 4.5 10 10 10S80 35.5 80 30zM70 35c-2.8 0-5-2.2-5-5s2.2-5 5-5 5 2.2 5 5S72.8 35 70 35z" fill="#97978d" data-fill-palette-color="accent"></path><path d="M70 17.5c1.4 0 2.5-1.1 2.5-2.5V7.5C72.5 6.1 71.4 5 70 5s-2.5 1.1-2.5 2.5V15C67.5 16.4 68.6 17.5 70 17.5z" fill="#97978d" data-fill-palette-color="accent"></path><path d="M67.5 45v7.5c0 1.4 1.1 2.5 2.5 2.5s2.5-1.1 2.5-2.5V45c0-1.4-1.1-2.5-2.5-2.5S67.5 43.6 67.5 45z" fill="#97978d" data-fill-palette-color="accent"></path><path d="M60.3 18.3c0.5 0.8 1.3 1.3 2.2 1.3 0.4 0 0.9-0.1 1.2-0.3 1.2-0.7 1.6-2.2 0.9-3.4l-3.8-6.5c-0.7-1.2-2.2-1.6-3.4-0.9-1.2 0.7-1.6 2.2-0.9 3.4L60.3 18.3z" fill="#97978d" data-fill-palette-color="accent"></path><path d="M79.1 50.7c0.5 0.8 1.3 1.3 2.2 1.3 0.4 0 0.9-0.1 1.2-0.3 1.2-0.7 1.6-2.2 0.9-3.4l-3.8-6.5c-0.7-1.2-2.2-1.6-3.4-0.9-1.2 0.7-1.6 2.2-0.9 3.4L79.1 50.7z" fill="#97978d" data-fill-palette-color="accent"></path><path d="M49.3 20.9l6.5 3.8c0.4 0.2 0.8 0.3 1.2 0.3 0.9 0 1.7-0.4 2.2-1.3 0.7-1.2 0.3-2.7-0.9-3.4l-6.5-3.8c-1.2-0.7-2.7-0.3-3.4 0.9C47.7 18.7 48.1 20.2 49.3 20.9z" fill="#97978d" data-fill-palette-color="accent"></path><path d="M89.5 43.8c0.9 0 1.7-0.4 2.2-1.3 0.7-1.2 0.3-2.7-0.9-3.4l-6.5-3.8c-1.2-0.7-2.7-0.3-3.4 0.9-0.7 1.2-0.3 2.7 0.9 3.4l6.5 3.8C88.6 43.6 89.1 43.8 89.5 43.8z" fill="#97978d" data-fill-palette-color="accent"></path><path d="M47.5 32.5H55c1.4 0 2.5-1.1 2.5-2.5s-1.1-2.5-2.5-2.5h-7.5c-1.4 0-2.5 1.1-2.5 2.5S46.1 32.5 47.5 32.5z" fill="#97978d" data-fill-palette-color="accent"></path><path d="M92.5 27.5H85c-1.4 0-2.5 1.1-2.5 2.5s1.1 2.5 2.5 2.5h7.5c1.4 0 2.5-1.1 2.5-2.5S93.9 27.5 92.5 27.5z" fill="#97978d" data-fill-palette-color="accent"></path><path d="M59.2 36.3c-0.7-1.2-2.2-1.6-3.4-0.9l-6.5 3.8c-1.2 0.7-1.6 2.2-0.9 3.4 0.5 0.8 1.3 1.3 2.2 1.3 0.4 0 0.9-0.1 1.2-0.3l6.5-3.8C59.5 39 59.9 37.4 59.2 36.3z" fill="#97978d" data-fill-palette-color="accent"></path><path d="M80.8 23.8c0.5 0.8 1.3 1.3 2.2 1.3 0.4 0 0.9-0.1 1.2-0.3l6.5-3.8c1.2-0.7 1.6-2.2 0.9-3.4-0.7-1.2-2.2-1.6-3.4-0.9l-6.5 3.8C80.5 21 80.1 22.6 80.8 23.8z" fill="#97978d" data-fill-palette-color="accent"></path><path d="M57.5 51.7c0.4 0.2 0.8 0.3 1.2 0.3 0.9 0 1.7-0.4 2.2-1.3l3.8-6.5c0.7-1.2 0.3-2.7-0.9-3.4-1.2-0.7-2.7-0.3-3.4 0.9l-3.8 6.5C55.9 49.4 56.3 51 57.5 51.7z" fill="#97978d" data-fill-palette-color="accent"></path><path d="M76.3 19.2c0.4 0.2 0.8 0.3 1.2 0.3 0.9 0 1.7-0.4 2.2-1.3l3.8-6.5c0.7-1.2 0.3-2.7-0.9-3.4-1.2-0.7-2.7-0.3-3.4 0.9l-3.8 6.5C74.6 17 75.1 18.5 76.3 19.2z" fill="#97978d" data-fill-palette-color="accent"></path></svg></g><g transform="matrix(1,0,0,1,247.88173828125002,11.300830078125)"><svg width="280.07812499999994" viewBox="2.559999942779541 -36.060001373291016 280.05999755859375 36.56999969482422" height="36.572265625" data-palette-color="#6b7280"><path d="M15.41 0.51L15.41 0.51Q11.77 0.51 8.64-0.39 5.52-1.29 2.56-3.39L2.56-3.39 2.56-11.57 7.32-11.57 8.11-6.27Q9.4-5.35 11.29-4.79 13.18-4.22 15.41-4.22L15.41-4.22Q17.58-4.22 19.06-4.85 20.53-5.47 21.31-6.59 22.09-7.71 22.09-9.25L22.09-9.25Q22.09-10.67 21.41-11.77 20.73-12.87 19.14-13.73 17.55-14.6 14.84-15.33L14.84-15.33Q10.86-16.41 8.19-17.87 5.52-19.34 4.16-21.39 2.81-23.44 2.81-26.22L2.81-26.22Q2.81-29.08 4.36-31.27 5.91-33.47 8.67-34.74 11.43-36.01 15.04-36.04L15.04-36.04Q18.99-36.08 22.03-35.01 25.07-33.94 27.17-32.2L27.17-32.2 27.17-24.56 22.51-24.56 21.63-29.54Q20.63-30.25 19.03-30.75 17.43-31.25 15.26-31.25L15.26-31.25Q13.4-31.25 11.99-30.64 10.57-30.03 9.77-28.92 8.96-27.81 8.96-26.27L8.96-26.27Q8.96-24.93 9.67-23.93 10.38-22.92 12.04-22.11 13.7-21.29 16.53-20.46L16.53-20.46Q22.31-18.92 25.29-16.21 28.27-13.5 28.27-9.3L28.27-9.3Q28.27-6.35 26.67-4.14 25.07-1.93 22.18-0.71 19.29 0.51 15.41 0.51ZM47.19 0.51L47.19 0.51Q43.65 0.51 40.79-0.82 37.94-2.15 35.9-4.57 33.86-6.98 32.76-10.28 31.66-13.57 31.66-17.5L31.66-17.5 31.66-18.04Q31.66-21.95 32.76-25.24 33.86-28.54 35.9-30.97 37.94-33.4 40.79-34.73 43.65-36.06 47.17-36.06L47.17-36.06Q50.8-36.06 53.68-34.73 56.56-33.4 58.59-30.97 60.62-28.54 61.69-25.24 62.77-21.95 62.77-18.04L62.77-18.04 62.77-17.5Q62.77-13.57 61.69-10.28 60.62-6.98 58.59-4.57 56.56-2.15 53.68-0.82 50.8 0.51 47.19 0.51ZM47.19-4.37L47.19-4.37Q50.41-4.37 52.5-6.02 54.59-7.67 55.6-10.62 56.61-13.57 56.61-17.5L56.61-17.5 56.61-18.09Q56.61-21.97 55.59-24.9 54.56-27.83 52.48-29.49 50.39-31.15 47.17-31.15L47.17-31.15Q44.09-31.15 42.01-29.49 39.94-27.83 38.89-24.9 37.84-21.97 37.84-18.09L37.84-18.09 37.84-17.5Q37.84-13.6 38.89-10.63 39.94-7.67 42.03-6.02 44.11-4.37 47.19-4.37ZM92.23 0L65.96 0 65.96-3.76 69.84-4.49 69.84-31.03 65.96-31.76 65.96-35.55 69.84-35.55 76-35.55 80.17-35.55 80.17-31.76 76-31.03 76-4.71 87.1-4.71 87.52-10.08 92.23-10.08 92.23 0ZM110.88 0.51L110.88 0.51Q106.9 0.51 103.83-0.94 100.75-2.39 99.03-5.13 97.31-7.86 97.31-11.74L97.31-11.74 97.31-31.03 93.43-31.76 93.43-35.55 107.32-35.55 107.32-31.76 103.43-31.03 103.43-11.74Q103.43-9.28 104.36-7.6 105.29-5.93 106.97-5.1 108.66-4.27 110.91-4.27L110.91-4.27Q113.22-4.27 114.92-5.1 116.62-5.93 117.56-7.59 118.5-9.25 118.5-11.74L118.5-11.74 118.5-31.03 114.62-31.76 114.62-35.55 128.51-35.55 128.51-31.76 124.65-31.03 124.65-11.74Q124.65-7.81 122.93-5.08 121.21-2.34 118.11-0.92 115.01 0.51 110.88 0.51ZM153.75 0L139.83 0 139.83-3.76 143.72-4.49 143.72-30.83 136.56-30.83 136.03-26.29 131.41-26.29 131.41-35.55 162.2-35.55 162.2-26.29 157.56-26.29 157.02-30.83 149.87-30.83 149.87-4.49 153.75-3.76 153.75 0ZM179.36 0L165.47 0 165.47-3.76 169.35-4.49 169.35-31.03 165.47-31.76 165.47-35.55 179.36-35.55 179.36-31.76 175.5-31.03 175.5-4.49 179.36-3.76 179.36 0ZM198.15 0.51L198.15 0.51Q194.61 0.51 191.76-0.82 188.9-2.15 186.86-4.57 184.82-6.98 183.73-10.28 182.63-13.57 182.63-17.5L182.63-17.5 182.63-18.04Q182.63-21.95 183.73-25.24 184.82-28.54 186.86-30.97 188.9-33.4 191.76-34.73 194.61-36.06 198.13-36.06L198.13-36.06Q201.77-36.06 204.65-34.73 207.53-33.4 209.56-30.97 211.58-28.54 212.66-25.24 213.73-21.95 213.73-18.04L213.73-18.04 213.73-17.5Q213.73-13.57 212.66-10.28 211.58-6.98 209.56-4.57 207.53-2.15 204.65-0.82 201.77 0.51 198.15 0.51ZM198.15-4.37L198.15-4.37Q201.38-4.37 203.46-6.02 205.55-7.67 206.56-10.62 207.58-13.57 207.58-17.5L207.58-17.5 207.58-18.09Q207.58-21.97 206.55-24.9 205.53-27.83 203.44-29.49 201.35-31.15 198.13-31.15L198.13-31.15Q195.05-31.15 192.98-29.49 190.9-27.83 189.85-24.9 188.8-21.97 188.8-18.09L188.8-18.09 188.8-17.5Q188.8-13.6 189.85-10.63 190.9-7.67 192.99-6.02 195.08-4.37 198.15-4.37ZM230.87 0L216.95 0 216.95-3.76 220.83-4.49 220.83-31.03 216.95-31.76 216.95-35.55 220.83-35.55 227.06-35.55 243.37-9.59 243.51-9.64 243.51-31.03 239.02-31.76 239.02-35.55 249.05-35.55 252.94-35.55 252.94-31.76 249.05-31.03 249.05 0 243.22 0 226.52-25.85 226.37-25.83 226.37-4.49 230.87-3.76 230.87 0ZM269.76 0.51L269.76 0.51Q266.12 0.51 262.99-0.39 259.87-1.29 256.91-3.39L256.91-3.39 256.91-11.57 261.67-11.57 262.46-6.27Q263.75-5.35 265.64-4.79 267.53-4.22 269.76-4.22L269.76-4.22Q271.93-4.22 273.41-4.85 274.88-5.47 275.66-6.59 276.44-7.71 276.44-9.25L276.44-9.25Q276.44-10.67 275.76-11.77 275.08-12.87 273.49-13.73 271.9-14.6 269.19-15.33L269.19-15.33Q265.21-16.41 262.54-17.87 259.87-19.34 258.51-21.39 257.16-23.44 257.16-26.22L257.16-26.22Q257.16-29.08 258.71-31.27 260.26-33.47 263.02-34.74 265.78-36.01 269.39-36.04L269.39-36.04Q273.34-36.08 276.38-35.01 279.42-33.94 281.52-32.2L281.52-32.2 281.52-24.56 276.86-24.56 275.98-29.54Q274.98-30.25 273.38-30.75 271.78-31.25 269.61-31.25L269.61-31.25Q267.75-31.25 266.34-30.64 264.92-30.03 264.12-28.92 263.31-27.81 263.31-26.27L263.31-26.27Q263.31-24.93 264.02-23.93 264.73-22.92 266.39-22.11 268.05-21.29 270.88-20.46L270.88-20.46Q276.66-18.92 279.64-16.21 282.62-13.5 282.62-9.3L282.62-9.3Q282.62-6.35 281.02-4.14 279.42-1.93 276.53-0.71 273.64 0.51 269.76 0.51Z" opacity="1" transform="matrix(1,0,0,1,0,0)" fill="#6b7280" class="undefined-o-1"></path></svg></g></svg></g></svg></g><g transform="matrix(1,0,0,1,144.0220047433036,67.8077599609375)"><svg viewBox="0 0 239.91585379464283 22.60166015625" height="22.60166015625" width="239.91585379464283"><g transform="matrix(1,0,0,1,0,0)"><svg width="239.91585379464283" viewBox="1.9000000953674316 -36.25 390.07000732421875 36.75" height="22.60166015625" data-palette-color="#97978d"><path d="M13.65 0.5L13.65 0.5Q9.9 0.5 6.8-0.95 3.7-2.4 1.9-5.05L1.9-5.05 5.6-8.25Q6.7-6.2 8.78-4.98 10.85-3.75 13.75-3.75L13.75-3.75Q16.05-3.75 17.4-4.55 18.75-5.35 18.75-6.8L18.75-6.8Q18.75-7.75 18.13-8.47 17.5-9.2 15.75-9.6L15.75-9.6 10.5-10.7Q6.5-11.5 4.8-13.28 3.1-15.05 3.1-17.8L3.1-17.8Q3.1-19.85 4.3-21.6 5.5-23.35 7.83-24.43 10.15-25.5 13.4-25.5L13.4-25.5Q17.15-25.5 19.8-24.18 22.45-22.85 23.85-20.4L23.85-20.4 20.15-17.3Q19.2-19.3 17.35-20.28 15.5-21.25 13.5-21.25L13.5-21.25Q11.9-21.25 10.75-20.85 9.6-20.45 9-19.75 8.4-19.05 8.4-18.1L8.4-18.1Q8.4-17.1 9.15-16.35 9.9-15.6 11.85-15.2L11.85-15.2 17.55-14Q21.15-13.3 22.63-11.63 24.1-9.95 24.1-7.55L24.1-7.55Q24.1-5.15 22.85-3.33 21.6-1.5 19.25-0.5 16.9 0.5 13.65 0.5ZM41.4-25.5L41.4-25.5Q44.4-25.5 46.52-24.63 48.65-23.75 50.1-22.15 51.55-20.55 52.3-18.5L52.3-18.5 47.25-16.5Q46.6-18.8 45.17-20.03 43.75-21.25 41.45-21.25L41.45-21.25Q39.2-21.25 37.6-20.23 36-19.2 35.17-17.25 34.35-15.3 34.35-12.45L34.35-12.45Q34.35-9.65 35.2-7.7 36.05-5.75 37.65-4.75 39.25-3.75 41.45-3.75L41.45-3.75Q43.15-3.75 44.4-4.33 45.65-4.9 46.47-5.98 47.3-7.05 47.6-8.6L47.6-8.6 52.45-6.95Q51.75-4.7 50.27-3.03 48.8-1.35 46.6-0.43 44.4 0.5 41.55 0.5L41.55 0.5Q37.85 0.5 35-1.05 32.15-2.6 30.57-5.53 29-8.45 29-12.5L29-12.5Q29-16.55 30.57-19.48 32.15-22.4 34.97-23.95 37.8-25.5 41.4-25.5ZM64.05 0L58.7 0 58.7-25 63.25-25 63.75-20.5Q64.75-22.95 66.72-24.23 68.7-25.5 71.59-25.5L71.59-25.5Q72.34-25.5 73.09-25.38 73.84-25.25 74.34-25L74.34-25 73.59-20.3Q73.05-20.5 72.37-20.63 71.7-20.75 70.55-20.75L70.55-20.75Q69-20.75 67.5-19.93 66-19.1 65.02-17.45 64.05-15.8 64.05-13.25L64.05-13.25 64.05 0ZM90.39 0.5L90.39 0.5Q86.64 0.5 83.79-1.05 80.94-2.6 79.37-5.53 77.79-8.45 77.79-12.5L77.79-12.5Q77.79-16.55 79.37-19.48 80.94-22.4 83.74-23.95 86.54-25.5 90.09-25.5L90.09-25.5Q93.74-25.5 96.29-24 98.84-22.5 100.19-19.9 101.54-17.3 101.54-14L101.54-14Q101.54-13.1 101.49-12.3 101.44-11.5 101.34-10.9L101.34-10.9 81.24-10.9 81.24-15 98.99-15 96.34-14.2Q96.34-17.6 94.64-19.43 92.94-21.25 89.99-21.25L89.99-21.25Q87.84-21.25 86.24-20.25 84.64-19.25 83.79-17.28 82.94-15.3 82.94-12.45L82.94-12.45Q82.94-9.65 83.84-7.7 84.74-5.75 86.39-4.75 88.04-3.75 90.29-3.75L90.29-3.75Q92.79-3.75 94.34-4.7 95.89-5.65 96.79-7.35L96.79-7.35 101.04-5.35Q100.14-3.55 98.62-2.23 97.09-0.9 94.99-0.2 92.89 0.5 90.39 0.5ZM134.39-5.25L140.09-25 145.89-25 137.49 0 131.64 0 125.34-18.55 119.39 0 113.54 0 105.19-25 110.94-25 116.64-5.25 122.84-25 128.19-25 134.39-5.25ZM176.79 0.5L176.79 0.5Q173.04 0.5 169.94-0.95 166.84-2.4 165.04-5.05L165.04-5.05 168.74-8.25Q169.84-6.2 171.91-4.98 173.99-3.75 176.89-3.75L176.89-3.75Q179.19-3.75 180.54-4.55 181.89-5.35 181.89-6.8L181.89-6.8Q181.89-7.75 181.26-8.47 180.64-9.2 178.89-9.6L178.89-9.6 173.64-10.7Q169.64-11.5 167.94-13.28 166.24-15.05 166.24-17.8L166.24-17.8Q166.24-19.85 167.44-21.6 168.64-23.35 170.96-24.43 173.29-25.5 176.54-25.5L176.54-25.5Q180.29-25.5 182.94-24.18 185.59-22.85 186.99-20.4L186.99-20.4 183.29-17.3Q182.34-19.3 180.49-20.28 178.64-21.25 176.64-21.25L176.64-21.25Q175.04-21.25 173.89-20.85 172.74-20.45 172.14-19.75 171.54-19.05 171.54-18.1L171.54-18.1Q171.54-17.1 172.29-16.35 173.04-15.6 174.99-15.2L174.99-15.2 180.69-14Q184.29-13.3 185.76-11.63 187.24-9.95 187.24-7.55L187.24-7.55Q187.24-5.15 185.99-3.33 184.74-1.5 182.39-0.5 180.04 0.5 176.79 0.5ZM208.18-9.25L208.18-16.05Q208.18-18.55 206.81-19.93 205.43-21.3 203.03-21.3L203.03-21.3Q200.78-21.3 199.18-20.25 197.58-19.2 196.83-16.85L196.83-16.85 192.33-18.75Q193.28-21.8 196.06-23.65 198.83-25.5 203.23-25.5L203.23-25.5Q206.23-25.5 208.53-24.53 210.83-23.55 212.16-21.6 213.48-19.65 213.48-16.6L213.48-16.6 213.48-5.45Q213.48-3.6 215.33-3.6L215.33-3.6Q216.23-3.6 217.08-3.85L217.08-3.85 216.78-0.15Q215.63 0.4 213.88 0.4L213.88 0.4Q212.28 0.4 211.01-0.18 209.73-0.75 209.01-1.93 208.28-3.1 208.28-4.85L208.28-4.85 208.28-5.2 209.38-5.25Q208.93-3.3 207.53-2.02 206.13-0.75 204.28-0.13 202.43 0.5 200.53 0.5L200.53 0.5Q198.18 0.5 196.31-0.25 194.43-1 193.36-2.53 192.28-4.05 192.28-6.3L192.28-6.3Q192.28-9.1 194.11-10.9 195.93-12.7 199.28-13.35L199.28-13.35 208.98-15.25 208.93-11.5 201.88-10.05Q199.78-9.65 198.73-8.9 197.68-8.15 197.68-6.7L197.68-6.7Q197.68-5.3 198.76-4.48 199.83-3.65 201.63-3.65L201.63-3.65Q202.88-3.65 204.06-3.95 205.23-4.25 206.18-4.93 207.13-5.6 207.66-6.68 208.18-7.75 208.18-9.25L208.18-9.25ZM222.08-36.25L227.43-36.25 227.43-7Q227.43-5.15 228.08-4.45 228.73-3.75 230.23-3.75L230.23-3.75Q231.13-3.75 231.76-3.88 232.38-4 233.33-4.35L233.33-4.35 232.73-0.35Q231.88 0.05 230.78 0.28 229.68 0.5 228.58 0.5L228.58 0.5Q225.23 0.5 223.66-1.23 222.08-2.95 222.08-6.55L222.08-6.55 222.08-36.25ZM248.83 0.5L248.83 0.5Q245.08 0.5 242.23-1.05 239.38-2.6 237.8-5.53 236.23-8.45 236.23-12.5L236.23-12.5Q236.23-16.55 237.8-19.48 239.38-22.4 242.18-23.95 244.98-25.5 248.53-25.5L248.53-25.5Q252.18-25.5 254.73-24 257.28-22.5 258.63-19.9 259.98-17.3 259.98-14L259.98-14Q259.98-13.1 259.93-12.3 259.88-11.5 259.78-10.9L259.78-10.9 239.68-10.9 239.68-15 257.43-15 254.78-14.2Q254.78-17.6 253.08-19.43 251.38-21.25 248.43-21.25L248.43-21.25Q246.28-21.25 244.68-20.25 243.08-19.25 242.23-17.28 241.38-15.3 241.38-12.45L241.38-12.45Q241.38-9.65 242.28-7.7 243.18-5.75 244.83-4.75 246.48-3.75 248.73-3.75L248.73-3.75Q251.23-3.75 252.78-4.7 254.33-5.65 255.23-7.35L255.23-7.35 259.48-5.35Q258.58-3.55 257.05-2.23 255.53-0.9 253.43-0.2 251.33 0.5 248.83 0.5ZM276.23 0.5L276.23 0.5Q272.48 0.5 269.38-0.95 266.28-2.4 264.48-5.05L264.48-5.05 268.18-8.25Q269.28-6.2 271.35-4.98 273.43-3.75 276.33-3.75L276.33-3.75Q278.63-3.75 279.98-4.55 281.33-5.35 281.33-6.8L281.33-6.8Q281.33-7.75 280.7-8.47 280.08-9.2 278.33-9.6L278.33-9.6 273.08-10.7Q269.08-11.5 267.38-13.28 265.68-15.05 265.68-17.8L265.68-17.8Q265.68-19.85 266.88-21.6 268.08-23.35 270.4-24.43 272.73-25.5 275.98-25.5L275.98-25.5Q279.73-25.5 282.38-24.18 285.03-22.85 286.43-20.4L286.43-20.4 282.73-17.3Q281.78-19.3 279.93-20.28 278.08-21.25 276.08-21.25L276.08-21.25Q274.48-21.25 273.33-20.85 272.18-20.45 271.58-19.75 270.98-19.05 270.98-18.1L270.98-18.1Q270.98-17.1 271.73-16.35 272.48-15.6 274.43-15.2L274.43-15.2 280.13-14Q283.73-13.3 285.2-11.63 286.68-9.95 286.68-7.55L286.68-7.55Q286.68-5.15 285.43-3.33 284.18-1.5 281.83-0.5 279.48 0.5 276.23 0.5ZM298.52 0L293.17 0 293.17-25 297.92-25 298.17-20.8Q299.47-23.2 301.65-24.35 303.82-25.5 306.27-25.5L306.27-25.5Q308.97-25.5 311.25-24.28 313.52-23.05 314.67-20.6L314.67-20.6Q315.47-22.25 316.87-23.35 318.27-24.45 319.97-24.98 321.67-25.5 323.32-25.5L323.32-25.5Q325.72-25.5 327.82-24.5 329.92-23.5 331.22-21.45 332.52-19.4 332.52-16.2L332.52-16.2 332.52 0 327.17 0 327.17-15.35Q327.17-18.4 325.72-19.75 324.27-21.1 322.02-21.1L322.02-21.1Q320.27-21.1 318.8-20.25 317.32-19.4 316.42-17.73 315.52-16.05 315.52-13.6L315.52-13.6 315.52 0 310.17 0 310.17-15.35Q310.17-18.4 308.72-19.75 307.27-21.1 305.02-21.1L305.02-21.1Q303.52-21.1 302.02-20.3 300.52-19.5 299.52-17.8 298.52-16.1 298.52-13.3L298.52-13.3 298.52 0ZM355.07-9.25L355.07-16.05Q355.07-18.55 353.7-19.93 352.32-21.3 349.92-21.3L349.92-21.3Q347.67-21.3 346.07-20.25 344.47-19.2 343.72-16.85L343.72-16.85 339.22-18.75Q340.17-21.8 342.95-23.65 345.72-25.5 350.12-25.5L350.12-25.5Q353.12-25.5 355.42-24.53 357.72-23.55 359.05-21.6 360.37-19.65 360.37-16.6L360.37-16.6 360.37-5.45Q360.37-3.6 362.22-3.6L362.22-3.6Q363.12-3.6 363.97-3.85L363.97-3.85 363.67-0.15Q362.52 0.4 360.77 0.4L360.77 0.4Q359.17 0.4 357.9-0.18 356.62-0.75 355.9-1.93 355.17-3.1 355.17-4.85L355.17-4.85 355.17-5.2 356.27-5.25Q355.82-3.3 354.42-2.02 353.02-0.75 351.17-0.13 349.32 0.5 347.42 0.5L347.42 0.5Q345.07 0.5 343.2-0.25 341.32-1 340.25-2.53 339.17-4.05 339.17-6.3L339.17-6.3Q339.17-9.1 341-10.9 342.82-12.7 346.17-13.35L346.17-13.35 355.87-15.25 355.82-11.5 348.77-10.05Q346.67-9.65 345.62-8.9 344.57-8.15 344.57-6.7L344.57-6.7Q344.57-5.3 345.65-4.48 346.72-3.65 348.52-3.65L348.52-3.65Q349.77-3.65 350.95-3.95 352.12-4.25 353.07-4.93 354.02-5.6 354.55-6.68 355.07-7.75 355.07-9.25L355.07-9.25ZM374.47 0L369.12 0 369.12-25 373.87-25 374.22-18.5 373.52-19.2Q374.22-21.35 375.54-22.78 376.87-24.2 378.69-24.85 380.52-25.5 382.57-25.5L382.57-25.5Q385.22-25.5 387.34-24.48 389.47-23.45 390.72-21.4 391.97-19.35 391.97-16.2L391.97-16.2 391.97 0 386.62 0 386.62-14.55Q386.62-18.25 385.09-19.68 383.57-21.1 381.27-21.1L381.27-21.1Q379.62-21.1 378.07-20.33 376.52-19.55 375.49-17.85 374.47-16.15 374.47-13.3L374.47-13.3 374.47 0Z" opacity="1" transform="matrix(1,0,0,1,0,0)" fill="#97978d" class="undefined-text-1" data-fill-palette-color="secondary" id="text-1"></path></svg></g></svg></g></svg></g></svg></g></svg></g><defs></defs></svg><rect width="395.52" height="67.73002330614841" fill="none" stroke="none" visibility="hidden"></rect></g></svg></g></svg>